<svg width="17" height="4" viewBox="0 0 17 4" fill="none" xmlns="http://www.w3.org/2000/svg">
<path d="M8.17969 4C9.28426 4 10.1797 3.10457 10.1797 2C10.1797 0.89543 9.28426 0 8.17969 0C7.07512 0 6.17969 0.89543 6.17969 2C6.17969 3.10457 7.07512 4 8.17969 4Z" fill="white"/>
<path d="M2.17969 4C3.28426 4 4.17969 3.10457 4.17969 2C4.17969 0.89543 3.28426 0 2.17969 0C1.07512 0 0.179688 0.89543 0.179688 2C0.179688 3.10457 1.07512 4 2.17969 4Z" fill="white"/>
<path d="M14.1797 4C15.2843 4 16.1797 3.10457 16.1797 2C16.1797 0.89543 15.2843 0 14.1797 0C13.0751 0 12.1797 0.89543 12.1797 2C12.1797 3.10457 13.0751 4 14.1797 4Z" fill="white"/>
</svg>
