<svg width="52" height="24" viewBox="0 0 52 24" fill="none" xmlns="http://www.w3.org/2000/svg">
<path d="M25.5881 11.7307C23.5243 11.7307 21.8445 13.4105 21.8445 15.4744C21.8445 17.5383 23.5243 19.2181 25.5881 19.2181C27.6519 19.2181 29.3317 17.5383 29.3317 15.4744C29.3317 13.4105 27.6519 11.7307 25.5881 11.7307ZM25.5881 19.8225C23.1888 19.8225 21.2402 17.8712 21.2402 15.4744C21.2402 13.0776 23.1914 11.1263 25.5881 11.1263C27.9848 11.1263 29.936 13.0776 29.936 15.4744C29.936 17.8712 27.9848 19.8225 25.5881 19.8225Z" fill="#DCD8A6"/>
<path d="M25.5884 7.81075C21.3635 7.81075 17.9246 11.2498 17.9246 15.4749C17.9246 19.7001 21.3635 23.1391 25.5884 23.1391C29.8134 23.1391 33.2522 19.7001 33.2522 15.4749C33.2522 11.2498 29.8134 7.81075 25.5884 7.81075ZM25.5884 23.7434C21.028 23.7434 17.3203 20.0329 17.3203 15.4749C17.3203 10.9169 21.0306 7.20642 25.5884 7.20642C30.1462 7.20642 33.8565 10.9169 33.8565 15.4749C33.8565 20.0329 30.1462 23.7434 25.5884 23.7434Z" fill="#DCD8A6"/>
<path d="M16.6105 1.06331H0V0.458984H16.8998L16.6105 1.06331Z" fill="#DCD8A6"/>
<path d="M12.455 20.8721C12.2706 20.8721 12.0863 20.9182 11.9198 21.0078C11.6535 21.1512 11.4589 21.3894 11.3719 21.6813C11.1926 22.2805 11.5332 22.913 12.1324 23.0922C12.7315 23.2715 13.364 22.9309 13.5432 22.3317C13.6303 22.0423 13.5996 21.735 13.4562 21.4687C13.3128 21.2024 13.0747 21.0078 12.7827 20.9207C12.6752 20.8875 12.5651 20.8721 12.455 20.8721ZM12.455 23.7452C12.2886 23.7452 12.1221 23.7221 11.9557 23.6709C11.039 23.3944 10.5141 22.4239 10.7906 21.5046C10.9238 21.059 11.2234 20.6928 11.633 20.4726C12.0427 20.2524 12.5113 20.2063 12.9569 20.3395C13.4024 20.4726 13.7686 20.7722 13.9888 21.1819C14.209 21.5916 14.2576 22.0603 14.1219 22.5058C13.8966 23.2587 13.2027 23.7452 12.455 23.7452Z" fill="#DCD8A6"/>
<path d="M51.1823 7.52369C51.1823 3.37536 47.8075 0.000366211 43.6568 0.000366211C41.7466 0.000366211 39.9286 0.717361 38.5305 2.01563C37.1452 3.30622 36.3002 5.05262 36.1543 6.93217H36.7612C36.9071 5.22162 37.6778 3.63399 38.9402 2.45863C40.2231 1.26279 41.8977 0.60469 43.6542 0.60469C47.4695 0.60469 50.5729 3.70825 50.5729 7.52369V7.54161C50.5729 8.45322 50.2938 9.34434 49.7996 10.1126L41.3471 23.2284H50.7368V22.6241H42.4559L50.1914 10.6196C50.3809 10.3276 51.2156 9.09339 51.1772 7.52625" fill="#DCD8A6"/>
<path d="M37.4565 23.2259L49.9674 3.96693L49.4604 3.6366L36.7344 23.2259H37.4565Z" fill="#DCD8A6"/>
<path d="M1.17087 24L12.1609 0.894489L11.6155 0.630737L0.5 24H1.17087Z" fill="#DCD8A6"/>
<path d="M5.67343 24L16.6122 1.06349L16.1513 0.630737L5 24H5.67343Z" fill="#DCD8A6"/>
<path d="M25.6474 0.458862L18.4727 11.2624L18.9745 11.5953L26.372 0.458862H25.6474Z" fill="#DCD8A6"/>
</svg>
