<svg width="44" height="44" viewBox="0 0 44 44" fill="none" xmlns="http://www.w3.org/2000/svg">
<g id="Frame 2585">
<g id="Ig">
<path id="Ig ic" d="M17.6787 22.0006C17.6787 19.6143 19.6138 17.6794 22.0014 17.6794C24.3891 17.6794 26.3251 19.6143 26.3251 22.0006C26.3251 24.3868 24.3891 26.3217 22.0014 26.3217C19.6138 26.3217 17.6787 24.3868 17.6787 22.0006ZM15.3414 22.0006C15.3414 25.6767 18.3231 28.6566 22.0014 28.6566C25.6797 28.6566 28.6614 25.6767 28.6614 22.0006C28.6614 18.3244 25.6797 15.3445 22.0014 15.3445C18.3231 15.3445 15.3414 18.3244 15.3414 22.0006ZM27.3687 15.0806C27.3685 15.3882 27.4597 15.689 27.6306 15.9449C27.8015 16.2007 28.0445 16.4002 28.3289 16.518C28.6132 16.6359 28.9262 16.6668 29.2281 16.6069C29.5301 16.547 29.8074 16.399 30.0252 16.1815C30.243 15.9641 30.3913 15.687 30.4515 15.3853C30.5116 15.0836 30.481 14.7708 30.3633 14.4865C30.2456 14.2022 30.0462 13.9592 29.7903 13.7882C29.5344 13.6172 29.2335 13.5258 28.9257 13.5257H28.9251C28.5125 13.5259 28.1168 13.6897 27.825 13.9813C27.5331 14.2728 27.369 14.6682 27.3687 15.0806ZM16.7615 32.5517C15.4969 32.4942 14.8096 32.2836 14.3529 32.1058C13.7473 31.8702 13.3152 31.5896 12.861 31.1362C12.4067 30.6828 12.1255 30.2514 11.8908 29.6463C11.7128 29.19 11.5021 28.5029 11.4446 27.2391C11.3818 25.8727 11.3692 25.4623 11.3692 22.0007C11.3692 18.5391 11.3828 18.1298 11.4446 16.7623C11.5022 15.4985 11.7144 14.8127 11.8908 14.3551C12.1266 13.7499 12.4073 13.3181 12.861 12.8641C13.3146 12.4101 13.7463 12.1291 14.3529 11.8945C14.8094 11.7165 15.4969 11.506 16.7615 11.4486C18.1286 11.3857 18.5393 11.3732 22.0014 11.3732C25.4635 11.3732 25.8746 11.3868 27.2429 11.4486C28.5074 11.5061 29.1936 11.7182 29.6515 11.8945C30.2571 12.1291 30.6891 12.4107 31.1434 12.8641C31.5977 13.3175 31.8778 13.7499 32.1136 14.3551C32.2916 14.8114 32.5023 15.4985 32.5597 16.7623C32.6226 18.1298 32.6352 18.5391 32.6352 22.0007C32.6352 25.4623 32.6226 25.8716 32.5597 27.2391C32.5021 28.5029 32.2905 29.1898 32.1136 29.6463C31.8778 30.2514 31.597 30.6833 31.1434 31.1362C30.6898 31.5892 30.2571 31.8702 29.6515 32.1058C29.195 32.2838 28.5074 32.4943 27.2429 32.5517C25.8757 32.6146 25.4651 32.6271 22.0014 32.6271C18.5378 32.6271 18.1282 32.6146 16.7615 32.5517ZM16.6541 9.11659C15.2733 9.17943 14.3298 9.39824 13.5058 9.71867C12.6525 10.0496 11.9301 10.4935 11.2083 11.2138C10.4864 11.9341 10.0433 12.6572 9.71224 13.51C9.39161 14.334 9.17268 15.2765 9.1098 16.6564C9.04588 18.0385 9.03125 18.4804 9.03125 22.0006C9.03125 25.5208 9.04588 25.9626 9.1098 27.3447C9.17268 28.7248 9.39161 29.6671 9.71224 30.4911C10.0433 31.3434 10.4865 32.0673 11.2083 32.7873C11.93 33.5073 12.6525 33.9506 13.5058 34.2825C14.3314 34.6029 15.2733 34.8217 16.6541 34.8845C18.0377 34.9474 18.4791 34.963 22.0014 34.963C25.5237 34.963 25.9658 34.9484 27.3487 34.8845C28.7296 34.8217 29.6725 34.6029 30.497 34.2825C31.3498 33.9506 32.0727 33.5076 32.7945 32.7873C33.5164 32.067 33.9585 31.3434 34.2906 30.4911C34.6112 29.6671 34.8312 28.7247 34.893 27.3447C34.9559 25.9616 34.9705 25.5208 34.9705 22.0006C34.9705 18.4804 34.9559 18.0385 34.893 16.6564C34.8301 15.2764 34.6112 14.3335 34.2906 13.51C33.9585 12.6577 33.5153 11.9353 32.7945 11.2138C32.0738 10.4924 31.3498 10.0496 30.498 9.71867C29.6725 9.39824 28.7295 9.17839 27.3498 9.11659C25.9668 9.05374 25.5247 9.03809 22.0024 9.03809C18.4802 9.03809 18.0377 9.05271 16.6541 9.11659Z" fill="white"/>
</g>
</g>
</svg>
