<svg width="728" height="213" viewBox="0 0 728 213" fill="none" xmlns="http://www.w3.org/2000/svg">
<path d="M0.113281 208.991V3.85334H52.8629L143.71 132.797L233.677 3.85334H285.547V208.991H239.538V65.6876L164.516 175.29H122.024L46.4157 67.1529V208.991H0.113281Z" fill="white" fill-opacity="0.07"/>
<path d="M306.821 208.991V170.015H390.635V45.4669L312.975 59.5335V19.3852L396.789 3.85334H440.161V170.015H511.959V208.991H306.821Z" fill="white" fill-opacity="0.07"/>
<path d="M502.622 107.887C502.622 96.5559 503.794 86.1037 506.139 76.5306C508.483 66.7622 511.902 57.9706 516.396 50.1558C521.085 42.1457 526.75 35.1124 533.393 29.056C540.231 22.8041 548.045 17.6269 556.837 13.5241C565.629 9.226 575.397 6.00241 586.142 3.85334C596.888 1.70429 608.512 0.629761 621.016 0.629761C639.967 0.629761 656.573 2.58345 670.835 6.49083C685.097 10.2028 696.819 15.9662 706.001 23.781C715.184 31.4004 721.533 40.9735 725.05 52.5002L676.403 62.4641C674.645 56.9937 671.421 52.5002 666.732 48.9836C662.043 45.467 655.889 42.8295 648.27 41.0712C640.65 39.1175 631.468 38.1406 620.723 38.1406C611.736 38.1406 603.53 39.1175 596.106 41.0712C588.878 42.8295 582.43 45.6623 576.765 49.5697C571.294 53.2817 566.703 57.9706 562.991 63.6363C559.279 69.302 556.544 75.9445 554.786 83.5639C553.223 90.4018 552.344 97.8259 552.148 105.836C553.32 104.468 554.688 103.198 556.251 102.026C564.457 94.7976 575.104 89.2296 588.194 85.3222C601.284 81.4149 616.132 79.4612 632.738 79.4612C647.586 79.4612 660.871 80.9264 672.593 83.857C684.315 86.5921 694.182 90.6949 702.192 96.1652C710.397 101.636 716.551 108.376 720.654 116.386C724.952 124.396 727.101 133.578 727.101 143.933C727.101 154.678 724.659 164.349 719.775 172.945C715.086 181.346 708.053 188.477 698.675 194.338C689.297 200.199 677.868 204.693 664.388 207.819C651.103 210.749 635.766 212.214 618.378 212.214C603.14 212.214 589.366 210.749 577.058 207.819C564.945 204.888 554.2 200.59 544.822 194.924C535.64 189.063 527.825 181.932 521.378 173.531C515.126 165.13 510.437 155.46 507.311 144.519C504.185 133.383 502.622 121.172 502.622 107.887ZM618.671 174.704C628.244 174.704 636.645 174.02 643.874 172.652C651.298 171.285 657.452 169.331 662.336 166.791C667.221 164.251 670.835 161.125 673.179 157.413C675.719 153.701 676.989 149.501 676.989 144.812C676.989 139.733 675.719 135.337 673.179 131.625C670.835 127.913 667.221 124.787 662.336 122.247C657.452 119.707 651.298 117.753 643.874 116.386C636.645 115.018 628.244 114.335 618.671 114.335C609.098 114.335 600.6 115.018 593.176 116.386C585.947 117.558 579.793 119.414 574.713 121.954C569.829 124.494 566.117 127.522 563.577 131.039C561.233 134.555 560.061 138.56 560.061 143.054C560.061 148.133 561.233 152.627 563.577 156.534C566.117 160.442 569.829 163.763 574.713 166.498C579.793 169.233 586.045 171.285 593.469 172.652C600.893 174.02 609.294 174.704 618.671 174.704Z" fill="white" fill-opacity="0.07"/>
</svg>
