<svg width="20" height="20" viewBox="0 0 20 20" fill="none" xmlns="http://www.w3.org/2000/svg">
<g id="phone-svgrepo-com (2) 1">
<path id="Vector" d="M13.7955 10.7551L13.4159 11.1325C13.4159 11.1325 12.5138 12.0295 10.0513 9.58096C7.5888 7.13246 8.49095 6.23543 8.49095 6.23543L8.72995 5.99777C9.31878 5.41232 9.37428 4.47238 8.86053 3.78619L7.80975 2.38252C7.17393 1.53322 5.94533 1.42103 5.21657 2.14565L3.90857 3.44622C3.54722 3.80552 3.30507 4.27128 3.33444 4.78796C3.40956 6.10981 4.00762 8.95387 7.34483 12.2721C10.8838 15.791 14.2044 15.9308 15.5623 15.8042C15.9918 15.7642 16.3653 15.5455 16.6663 15.2461L17.8501 14.0691C18.6492 13.2745 18.4239 11.9124 17.4014 11.3566L15.8094 10.4911C15.138 10.1262 14.3202 10.2334 13.7955 10.7551Z" fill="white"/>
</g>
</svg>
