<svg width="36" height="36" viewBox="0 0 36 36" fill="none" xmlns="http://www.w3.org/2000/svg">
<g id="Frame 58">
<g id="Tg">
<path id="Tg ic" d="M9.22617 16.4658C9.22617 16.4658 18.0717 12.7026 21.1395 11.3775C22.3155 10.8475 26.3036 9.15133 26.3036 9.15133C26.3036 9.15133 28.1443 8.40932 27.9909 10.2114C27.9398 10.9535 27.5307 13.5506 27.1217 16.3598C26.5081 20.3351 25.8434 24.6813 25.8434 24.6813C25.8434 24.6813 25.7412 25.9005 24.872 26.1125C24.0028 26.3245 22.5711 25.3705 22.3155 25.1584C22.1109 24.9994 18.4807 22.6142 17.1513 21.4481C16.7934 21.1301 16.3844 20.4941 17.2024 19.7521C19.0431 18.0029 21.2417 15.8298 22.5711 14.4517C23.1847 13.8157 23.7982 12.3316 21.2417 14.1337C17.6115 16.7309 14.0324 19.169 14.0324 19.169C14.0324 19.169 13.2143 19.699 11.6804 19.222C10.1465 18.745 8.3569 18.1089 8.3569 18.1089C8.3569 18.1089 7.12985 17.3139 9.22617 16.4658Z" fill="white"/>
</g>
</g>
</svg>
