<svg width="36" height="36" viewBox="0 0 36 36" fill="none" xmlns="http://www.w3.org/2000/svg">
<g id="Frame 56">
<g id="WhatsApp">
<path id="whatsapp ic" fill-rule="evenodd" clip-rule="evenodd" d="M17.276 8.00647C15.7639 8.15362 14.6237 8.47991 13.3871 9.11924C11.4993 10.0953 9.97483 11.6485 9.03229 13.5563C8.67018 14.2893 8.49952 14.7385 8.31026 15.4574C8.07166 16.3634 8.00219 16.9142 8.00004 17.9165C7.99898 18.4155 8.01958 18.9572 8.04766 19.1679C8.26116 20.7701 8.76436 22.1509 9.60595 23.4437L9.88645 23.8746L9.26334 25.7115C8.92061 26.7218 8.64563 27.5538 8.65225 27.5604C8.6589 27.567 9.51608 27.3004 10.5571 26.9678C11.5982 26.6353 12.4638 26.3632 12.4809 26.3632C12.4979 26.3632 12.6586 26.4543 12.838 26.5656C13.0174 26.677 13.3933 26.8776 13.6733 27.0114C16.2051 28.2214 19.0993 28.325 21.6918 27.2983C24.6291 26.1351 26.8853 23.5903 27.6906 20.532C27.9373 19.5953 27.9998 19.0818 27.9998 17.9947C27.9998 16.9076 27.9373 16.3941 27.6906 15.4574C26.7459 11.8696 23.8662 9.0808 20.2325 8.23457C19.622 8.09238 18.9867 8.02035 18.2158 8.00592C17.785 7.99782 17.3621 7.99806 17.276 8.00647ZM14.8876 12.6468C14.9525 12.6804 15.0433 12.7756 15.0896 12.8583C15.2063 13.0673 16.1583 15.357 16.1861 15.4955C16.2215 15.6727 16.048 15.974 15.6588 16.411C15.2526 16.867 15.1653 17.0134 15.2014 17.1778C15.2671 17.4762 16.1728 18.6756 16.7307 19.2031C17.5966 20.0216 18.9054 20.7988 19.4885 20.8408C19.7883 20.8624 19.8977 20.7776 20.3563 20.168C20.5644 19.8915 20.7863 19.6135 20.8495 19.5505C21.0005 19.3996 21.2247 19.3677 21.4762 19.4611C21.7987 19.581 23.7706 20.5399 23.909 20.6442L24.0416 20.7441L24.0197 21.1584C23.9635 22.2221 23.5899 22.7745 22.6017 23.2548C21.6622 23.7113 20.9268 23.6989 19.4871 23.2019C17.5555 22.5352 16.5302 21.8984 15.1409 20.5024C14.4457 19.8038 13.9517 19.2133 13.3867 18.4053C12.4556 17.0739 12.0986 16.0458 12.2048 15.0024C12.29 14.1658 12.5828 13.5482 13.1741 12.9578C13.4601 12.6721 13.8344 12.5545 14.3977 12.5733C14.6367 12.5812 14.8119 12.6075 14.8876 12.6468Z" fill="white"/>
</g>
</g>
</svg>
