<svg width="1741" height="163" viewBox="0 0 1741 163" fill="none" xmlns="http://www.w3.org/2000/svg">
<rect x="145" y="143" width="1" height="20" fill="white"/>
<rect x="725" y="143" width="1" height="20" fill="white"/>
<rect x="1305" y="143" width="1" height="20" fill="white"/>
<rect x="290" y="143" width="1" height="20" fill="white"/>
<rect x="870" y="123" width="1" height="40" fill="white"/>
<rect x="1450" y="143" width="1" height="20" fill="white"/>
<rect x="435" y="143" width="1" height="20" fill="white"/>
<rect x="1015" y="143" width="1" height="20" fill="white"/>
<rect x="1595" y="143" width="1" height="20" fill="white"/>
<rect y="123" width="1" height="40" fill="white"/>
<rect x="580" y="123" width="1" height="40" fill="white"/>
<rect x="1160" y="123" width="1" height="40" fill="white"/>
<rect x="1740" y="123" width="1" height="40" fill="white"/>
<path d="M881.862 34.6207L870.431 23.1897L859 34.6207" stroke="white"/>
<path d="M881.862 56.8103L870.431 45.3793L859 56.8103" stroke="white"/>
<path d="M881.862 79L870.431 67.569L859 79" stroke="white"/>
<path d="M881.862 12.431L870.431 1L859 12.431" stroke="white"/>
</svg>
