<svg width="387" height="180" viewBox="0 0 387 180" fill="none" xmlns="http://www.w3.org/2000/svg">
<path d="M193.352 88.2959C177.817 88.2959 165.174 100.94 165.174 116.476C165.174 132.011 177.817 144.655 193.352 144.655C208.887 144.655 221.531 132.011 221.531 116.476C221.531 100.94 208.887 88.2959 193.352 88.2959ZM193.352 149.204C175.292 149.204 160.625 134.517 160.625 116.476C160.625 98.4345 175.312 83.7471 193.352 83.7471C211.392 83.7471 226.079 98.4345 226.079 116.476C226.079 134.517 211.392 149.204 193.352 149.204Z" fill="#DCD8A6"/>
<path d="M193.36 58.7901C161.559 58.7901 135.674 84.6761 135.674 116.48C135.674 148.283 161.559 174.169 193.36 174.169C225.162 174.169 251.047 148.283 251.047 116.48C251.047 84.6761 225.162 58.7901 193.36 58.7901ZM193.36 178.718C159.034 178.718 131.125 150.789 131.125 116.48C131.125 82.1704 159.053 54.2412 193.36 54.2412C227.668 54.2412 255.596 82.1704 255.596 116.48C255.596 150.789 227.668 178.718 193.36 178.718Z" fill="#DCD8A6"/>
<path d="M125.788 8.00003H0.757812V3.45117H127.966L125.788 8.00003Z" fill="#DCD8A6"/>
<path d="M94.49 157.105C93.1022 157.105 91.7145 157.452 90.4617 158.126C88.4572 159.206 86.9924 160.998 86.3371 163.196C84.9879 167.706 87.5514 172.467 92.0615 173.816C96.5716 175.165 101.332 172.602 102.681 168.091C103.337 165.913 103.105 163.6 102.026 161.596C100.947 159.591 99.1543 158.126 96.957 157.471C96.1475 157.22 95.3187 157.105 94.49 157.105ZM94.49 178.731C93.2372 178.731 91.9844 178.558 90.7316 178.172C83.8315 176.09 79.8803 168.785 81.9619 161.866C82.9642 158.512 85.2192 155.755 88.303 154.098C91.3869 152.44 94.914 152.093 98.2677 153.096C101.621 154.098 104.377 156.353 106.035 159.437C107.693 162.521 108.059 166.048 107.037 169.402C105.341 175.069 100.118 178.731 94.49 178.731Z" fill="#DCD8A6"/>
<path d="M386.001 56.6294C386.001 25.4042 360.598 0 329.355 0C314.977 0 301.293 5.39695 290.769 15.1693C280.342 24.8838 273.981 38.0292 272.883 52.1769H277.451C278.549 39.3013 284.351 27.351 293.853 18.5038C303.509 9.50248 316.114 4.54886 329.336 4.54886C358.054 4.54886 381.414 27.9099 381.414 56.6294V56.7643C381.414 63.6262 379.313 70.3338 375.594 76.1162L311.97 174.842H382.648V170.293H320.316L378.542 79.9326C379.969 77.7353 386.252 68.4449 385.963 56.6487" fill="#DCD8A6"/>
<path d="M282.701 174.823L376.873 29.8571L373.057 27.3706L277.266 174.823H282.701Z" fill="#DCD8A6"/>
<path d="M8.99898 180L92.2817 6.72993L88.1764 4.74463L3.94922 180H8.99898Z" fill="#DCD8A6"/>
<path d="M44.1628 179.947L125.78 8.00256L122.311 4.74512L39.0938 179.947H44.1628Z" fill="#DCD8A6"/>
<path d="M193.779 3.45117L139.773 84.7716L143.551 87.2773L199.233 3.45117H193.779Z" fill="#DCD8A6"/>
</svg>
